<?xml version="1.0" encoding="UTF-8" standalone="no"?>
<svg
   viewBox="0 0 32 32"
   version="1.1"
   id="svg27"
   sodipodi:docname="stata.svg"
   inkscape:version="1.1.2 (b8e25be833, 2022-02-05)"
   xmlns:inkscape="http://www.inkscape.org/namespaces/inkscape"
   xmlns:sodipodi="http://sodipodi.sourceforge.net/DTD/sodipodi-0.dtd"
   xmlns="http://www.w3.org/2000/svg"
   xmlns:svg="http://www.w3.org/2000/svg">
  <sodipodi:namedview
     id="namedview29"
     pagecolor="#ffffff"
     bordercolor="#666666"
     borderopacity="1.0"
     inkscape:pageshadow="2"
     inkscape:pageopacity="0.0"
     inkscape:pagecheckerboard="0"
     showgrid="false"
     inkscape:zoom="38.581514"
     inkscape:cx="15.305257"
     inkscape:cy="17.676859"
     inkscape:window-width="2560"
     inkscape:window-height="1377"
     inkscape:window-x="-8"
     inkscape:window-y="-8"
     inkscape:window-maximized="1"
     inkscape:current-layer="svg27" />
  <defs
     id="defs7">
    <linearGradient
       id="a"
       x1="16"
       y1="2"
       x2="16"
       y2="30"
       gradientUnits="userSpaceOnUse">
      <stop
         offset="0"
         stop-color="#8aa7c0"
         id="stop2" />
      <stop
         offset="1"
         stop-color="#3c6e8f"
         id="stop4" />
    </linearGradient>
  </defs>
  <title
     id="title9">file_type_stata</title>
  <rect
     x="2"
     y="2"
     width="28"
     height="28"
     rx="1.556"
     ry="1.556"
     style="fill:#064885;fill-opacity:1"
     id="rect11" />
  <rect
     x="13.171"
     y="6.0149999"
     width="5.756"
     height="5.756"
     style="fill:#ffffff;opacity:1"
     id="rect13" />
  <rect
     x="20.326"
     y="6.015"
     width="5.756"
     height="5.756"
     style="fill:#fff"
     id="rect15" />
  <rect
     x="20.326"
     y="13.171"
     width="5.756"
     height="5.756"
     style="fill:#fff"
     id="rect17" />
  <rect
     x="13.171"
     y="13.171"
     width="5.756"
     height="5.756"
     style="fill:#fff"
     id="rect19" />
  <rect
     x="6.015"
     y="13.171"
     width="5.756"
     height="5.756"
     style="fill:#fff"
     id="rect21" />
  <rect
     x="6.015"
     y="20.326"
     width="5.756"
     height="5.756"
     style="fill:#fff"
     id="rect23" />
  <rect
     x="13.171"
     y="20.326"
     width="5.756"
     height="5.756"
     style="fill:#fff"
     id="rect25" />
  <path
     style="font-variation-settings:normal;opacity:1;vector-effect:none;fill:#0000ff;fill-opacity:0;stroke-width:0.0259191;stroke-linecap:butt;stroke-linejoin:miter;stroke-miterlimit:4;stroke-dasharray:none;stroke-dashoffset:0;stroke-opacity:1;-inkscape-stroke:none;stop-color:#000000;stop-opacity:1"
     d="m 13.192847,8.8902681 v -2.864066 h 2.864066 2.864066 v 2.864066 2.8640659 h -2.864066 -2.864066 z"
     id="path17462" />
  <path
     style="font-variation-settings:normal;opacity:1;vector-effect:none;fill:#0000ff;fill-opacity:0;stroke-width:0.0259191;stroke-linecap:butt;stroke-linejoin:miter;stroke-miterlimit:4;stroke-dasharray:none;stroke-dashoffset:0;stroke-opacity:1;-inkscape-stroke:none;stop-color:#000000;stop-opacity:1"
     d="m 20.346532,8.8902681 v -2.864066 h 2.864066 2.864066 v 2.864066 2.8640659 h -2.864066 -2.864066 z"
     id="path17649" />
  <path
     style="font-variation-settings:normal;opacity:1;vector-effect:none;fill:#0000ff;fill-opacity:0;stroke-width:0.0259191;stroke-linecap:butt;stroke-linejoin:miter;stroke-miterlimit:4;stroke-dasharray:none;stroke-dashoffset:0;stroke-opacity:1;-inkscape-stroke:none;stop-color:#000000;stop-opacity:1"
     d="m 20.346532,16.043953 v -2.864066 h 2.864066 2.864066 v 2.864066 2.864066 h -2.864066 -2.864066 z"
     id="path17836" />
  <path
     style="font-variation-settings:normal;opacity:1;vector-effect:none;fill:#0000ff;fill-opacity:0;stroke-width:0.0259191;stroke-linecap:butt;stroke-linejoin:miter;stroke-miterlimit:4;stroke-dasharray:none;stroke-dashoffset:0;stroke-opacity:1;-inkscape-stroke:none;stop-color:#000000;stop-opacity:1"
     d="m 13.192847,16.043953 v -2.864066 h 2.864066 2.864066 v 2.864066 2.864066 h -2.864066 -2.864066 z"
     id="path18023" />
  <path
     style="font-variation-settings:normal;opacity:1;vector-effect:none;fill:#0000ff;fill-opacity:0;stroke-width:0.0259191;stroke-linecap:butt;stroke-linejoin:miter;stroke-miterlimit:4;stroke-dasharray:none;stroke-dashoffset:0;stroke-opacity:1;-inkscape-stroke:none;stop-color:#000000;stop-opacity:1"
     d="m 6.0391617,16.043953 v -2.864066 h 2.864066 2.8640663 v 2.864066 2.864066 H 8.9032277 6.0391617 Z"
     id="path18210" />
  <path
     style="font-variation-settings:normal;opacity:1;vector-effect:none;fill:#0000ff;fill-opacity:0;stroke-width:0.0259191;stroke-linecap:butt;stroke-linejoin:miter;stroke-miterlimit:4;stroke-dasharray:none;stroke-dashoffset:0;stroke-opacity:1;-inkscape-stroke:none;stop-color:#000000;stop-opacity:1"
     d="m 6.0391617,23.197638 v -2.864066 h 2.864066 2.8640663 v 2.864066 2.864066 H 8.9032277 6.0391617 Z"
     id="path18434" />
  <path
     style="font-variation-settings:normal;opacity:1;vector-effect:none;fill:#0000ff;fill-opacity:0;stroke-width:0.0259191;stroke-linecap:butt;stroke-linejoin:miter;stroke-miterlimit:4;stroke-dasharray:none;stroke-dashoffset:0;stroke-opacity:1;-inkscape-stroke:none;stop-color:#000000;stop-opacity:1"
     d="m 13.192847,23.197638 v -2.864066 h 2.864066 2.864066 v 2.864066 2.864066 h -2.864066 -2.864066 z"
     id="path18621" />
  <path
     style="font-variation-settings:normal;opacity:1;vector-effect:none;fill:#3f51b5;fill-opacity:1;stroke-width:0.0259191;stroke-linecap:butt;stroke-linejoin:miter;stroke-miterlimit:4;stroke-dasharray:none;stroke-dashoffset:0;stroke-opacity:1;-inkscape-stroke:none;stop-color:#000000;stop-opacity:1"
     d="M 3.1697612,29.935736 C 2.6383537,29.792581 2.2007127,29.349952 2.0622493,28.815606 2.0253326,28.673139 2.0220647,27.442686 2.0280432,15.936033 L 2.0346532,3.2139744 2.0951125,3.0526853 C 2.2861912,2.5429388 2.7309923,2.156786 3.2528532,2.047596 3.5278516,1.9900575 28.483226,1.9901854 28.757296,2.0477266 c 0.586039,0.1230406 1.071316,0.6103278 1.192799,1.1977399 0.03403,0.164559 0.03788,1.7062117 0.03204,12.8429385 l -0.0066,12.655931 -0.06919,0.189386 c -0.183315,0.501753 -0.580674,0.869445 -1.084211,1.003271 -0.210575,0.05596 -25.4445088,0.05473 -25.6523318,-0.0013 z M 11.793213,23.197638 V 20.307653 H 8.9032276 6.0132425 v 2.889985 2.889985 h 2.8899851 2.8899854 z m 7.153685,0 v -2.889985 h -2.889985 -2.889985 v 2.889985 2.889985 h 2.889985 2.889985 z M 11.793213,16.043953 V 13.153968 H 8.9032276 6.0132425 v 2.889985 2.889985 h 2.8899851 2.8899854 z m 7.153685,0 v -2.889985 h -2.889985 -2.889985 v 2.889985 2.889985 h 2.889985 2.889985 z m 7.153685,0 v -2.889985 h -2.889985 -2.889985 v 2.889985 2.889985 h 2.889985 2.889985 z M 18.946898,8.890268 V 6.0002829 h -2.889985 -2.889985 v 2.8899851 2.889985 h 2.889985 2.889985 z m 7.153685,0 V 6.0002829 h -2.889985 -2.889985 v 2.8899851 2.889985 h 2.889985 2.889985 z"
     id="path876" />
</svg>
